<!-- Generated by IcoMoon.io -->
<svg version="1.1" xmlns="http://www.w3.org/2000/svg" width="32" height="32" viewBox="0 0 32 32">
<path d="M16 0c-8.837 0-16 7.163-16 16s7.163 16 16 16 16-7.163 16-16c-0-8.837-7.164-16-16-16zM11.731 23.735h-3.513v-11.349h3.513v11.349zM9.958 10.9c-1.147 0-2.077-0.938-2.077-2.094s0.93-2.094 2.077-2.094 2.077 0.938 2.077 2.094c0 1.157-0.93 2.094-2.077 2.094zM24.896 23.735h-3.496v-5.957c0-1.634-0.621-2.546-1.913-2.546-1.406 0-2.141 0.95-2.141 2.546v5.957h-3.369v-11.349h3.369v1.529s1.014-1.875 3.42-1.875c2.407 0 4.129 1.469 4.129 4.509l-0 7.186z"></path>
</svg>
