<!-- Generated by IcoMoon.io -->
<svg version="1.1" xmlns="http://www.w3.org/2000/svg" width="32" height="32" viewBox="0 0 32 32">
<path fill="#007ab9" d="M32 16c0 8.837-7.163 16-16 16s-16-7.163-16-16c0-8.837 7.163-16 16-16s16 7.163 16 16z"></path>
<path fill="#f1f2f2" d="M25.56 17.287v6.596h-3.824v-6.154c0-1.545-0.552-2.601-1.937-2.601-1.057 0-1.684 0.71-1.962 1.398-0.101 0.246-0.127 0.587-0.127 0.932v6.424h-3.825c0 0 0.051-10.423 0-11.502h3.825v1.63c-0.008 0.013-0.019 0.025-0.025 0.038h0.025v-0.038c0.508-0.782 1.415-1.9 3.447-1.9 2.516 0 4.403 1.644 4.403 5.176v0zM9.884 6.836c-1.308 0-2.164 0.859-2.164 1.987 0 1.104 0.831 1.988 2.114 1.988h0.025c1.334 0 2.163-0.884 2.163-1.988-0.025-1.128-0.829-1.987-2.138-1.987v0zM7.948 23.884h3.823v-11.503h-3.823v11.503z"></path>
</svg>
