<svg aria-hidden="true" style="position: absolute; width: 0; height: 0; overflow: hidden;" version="1.1" xmlns="http://www.w3.org/2000/svg" xmlns:xlink="http://www.w3.org/1999/xlink">
<defs>
<symbol id="icon-github" viewBox="0 0 33 32">
<path d="M16.285 0c-9.005 0-16.285 7.333-16.285 16.406 0 7.252 4.664 13.391 11.135 15.563 0.809 0.163 1.105-0.353 1.105-0.787 0-0.38-0.027-1.684-0.027-3.042-4.53 0.978-5.473-1.956-5.473-1.956-0.728-1.901-1.807-2.39-1.807-2.39-1.483-1.005 0.108-1.005 0.108-1.005 1.645 0.109 2.508 1.684 2.508 1.684 1.456 2.499 3.801 1.793 4.745 1.358 0.135-1.059 0.566-1.793 1.025-2.2-3.613-0.38-7.414-1.793-7.414-8.094 0-1.793 0.647-3.259 1.671-4.4-0.162-0.407-0.728-2.092 0.162-4.346 0 0 1.375-0.435 4.475 1.684 1.221-0.343 2.622-0.542 4.070-0.543h0.001c1.375 0 2.777 0.19 4.071 0.543 3.101-2.119 4.476-1.684 4.476-1.684 0.89 2.254 0.323 3.939 0.162 4.346 1.052 1.141 1.672 2.607 1.672 4.4 0 6.302-3.801 7.687-7.441 8.094 0.593 0.516 1.105 1.494 1.105 3.042 0 2.2-0.027 3.966-0.027 4.509 0 0.435 0.297 0.951 1.105 0.788 6.471-2.173 11.135-8.312 11.135-15.564 0.027-9.072-7.28-16.406-16.258-16.406z"></path>
</symbol>
<symbol id="icon-linkedin1" viewBox="0 0 32 32">
<path d="M16 0c-8.837 0-16 7.163-16 16s7.163 16 16 16 16-7.163 16-16c-0-8.837-7.164-16-16-16zM11.731 23.735h-3.513v-11.349h3.513v11.349zM9.958 10.9c-1.147 0-2.077-0.938-2.077-2.094s0.93-2.094 2.077-2.094 2.077 0.938 2.077 2.094c0 1.157-0.93 2.094-2.077 2.094zM24.896 23.735h-3.496v-5.957c0-1.634-0.621-2.546-1.913-2.546-1.406 0-2.141 0.95-2.141 2.546v5.957h-3.369v-11.349h3.369v1.529s1.014-1.875 3.42-1.875c2.407 0 4.129 1.469 4.129 4.509l-0 7.186z"></path>
</symbol>
<symbol id="icon-linkedin2" viewBox="0 0 32 32">
<path fill="#007ab9" style="fill: var(--color2, #007ab9)" d="M32 16c0 8.837-7.163 16-16 16s-16-7.163-16-16c0-8.837 7.163-16 16-16s16 7.163 16 16z"></path>
<path fill="#f1f2f2" style="fill: var(--color3, #f1f2f2)" d="M25.56 17.287v6.596h-3.824v-6.154c0-1.545-0.552-2.601-1.937-2.601-1.057 0-1.684 0.71-1.962 1.398-0.101 0.246-0.127 0.587-0.127 0.932v6.424h-3.825c0 0 0.051-10.423 0-11.502h3.825v1.63c-0.008 0.013-0.019 0.025-0.025 0.038h0.025v-0.038c0.508-0.782 1.415-1.9 3.447-1.9 2.516 0 4.403 1.644 4.403 5.176v0zM9.884 6.836c-1.308 0-2.164 0.859-2.164 1.987 0 1.104 0.831 1.988 2.114 1.988h0.025c1.334 0 2.163-0.884 2.163-1.988-0.025-1.128-0.829-1.987-2.138-1.987v0zM7.948 23.884h3.823v-11.503h-3.823v11.503z"></path>
</symbol>
<symbol id="icon-mobile" viewBox="0 0 32 32">
<path d="M25.29 19.823c-0.655-0.682-1.445-1.047-2.283-1.047-0.831 0-1.628 0.358-2.31 1.040l-2.134 2.127c-0.176-0.095-0.351-0.182-0.52-0.27-0.243-0.122-0.473-0.236-0.669-0.358-1.999-1.27-3.816-2.924-5.558-5.065-0.844-1.067-1.412-1.965-1.824-2.877 0.554-0.507 1.067-1.033 1.567-1.54 0.189-0.189 0.378-0.385 0.567-0.574 1.418-1.418 1.418-3.255 0-4.674l-1.844-1.844c-0.209-0.209-0.425-0.425-0.628-0.642-0.405-0.419-0.831-0.851-1.27-1.256-0.655-0.648-1.439-0.993-2.263-0.993s-1.621 0.344-2.296 0.993c-0.007 0.007-0.007 0.007-0.014 0.014l-2.296 2.317c-0.865 0.865-1.358 1.918-1.466 3.141-0.162 1.972 0.419 3.809 0.865 5.011 1.094 2.951 2.729 5.687 5.167 8.618 2.958 3.532 6.517 6.322 10.583 8.287 1.553 0.736 3.627 1.607 5.943 1.756 0.142 0.007 0.29 0.014 0.425 0.014 1.56 0 2.87-0.561 3.897-1.675 0.007-0.014 0.020-0.020 0.027-0.034 0.351-0.425 0.756-0.81 1.182-1.222 0.29-0.277 0.588-0.567 0.878-0.871 0.669-0.696 1.020-1.506 1.020-2.337 0-0.837-0.358-1.641-1.040-2.317l-3.708-3.721zM27.708 26.935c-0.007 0-0.007 0.007 0 0-0.263 0.284-0.534 0.54-0.824 0.824-0.439 0.419-0.885 0.858-1.303 1.351-0.682 0.729-1.486 1.074-2.539 1.074-0.101 0-0.209 0-0.311-0.007-2.006-0.128-3.87-0.912-5.268-1.58-3.823-1.851-7.179-4.478-9.969-7.807-2.303-2.776-3.843-5.342-4.863-8.098-0.628-1.682-0.858-2.992-0.756-4.228 0.068-0.79 0.371-1.445 0.932-2.006l2.303-2.303c0.331-0.311 0.682-0.48 1.027-0.48 0.425 0 0.77 0.257 0.986 0.473 0.007 0.007 0.013 0.013 0.020 0.020 0.412 0.385 0.804 0.783 1.216 1.209 0.209 0.216 0.425 0.432 0.642 0.655l1.844 1.844c0.716 0.716 0.716 1.378 0 2.094-0.196 0.196-0.385 0.392-0.581 0.581-0.567 0.581-1.108 1.121-1.695 1.648-0.014 0.014-0.027 0.020-0.034 0.034-0.581 0.581-0.473 1.148-0.351 1.533 0.007 0.020 0.014 0.041 0.020 0.061 0.48 1.162 1.155 2.256 2.181 3.559l0.007 0.007c1.864 2.296 3.829 4.086 5.997 5.457 0.277 0.176 0.561 0.317 0.831 0.453 0.243 0.122 0.473 0.236 0.669 0.358 0.027 0.014 0.054 0.034 0.081 0.047 0.23 0.115 0.446 0.169 0.669 0.169 0.561 0 0.912-0.351 1.027-0.466l2.31-2.31c0.23-0.23 0.594-0.507 1.020-0.507 0.419 0 0.763 0.263 0.973 0.493 0.007 0.007 0.007 0.007 0.014 0.014l3.721 3.721c0.696 0.689 0.696 1.398 0.007 2.114z"></path>
</symbol>
<symbol id="icon-mail" viewBox="0 0 32 32">
<path d="M28.094 3.824h-24.18c-2.159 0-3.913 1.755-3.913 3.913v16.526c0 2.159 1.755 3.913 3.913 3.913h24.174c2.159 0 3.913-1.755 3.913-3.913v-16.52c0.007-2.159-1.748-3.92-3.906-3.92zM30.219 24.263c0 1.172-0.953 2.125-2.125 2.125h-24.18c-1.172 0-2.125-0.953-2.125-2.125v-16.52c0-1.172 0.953-2.125 2.125-2.125h24.174c1.172 0 2.125 0.953 2.125 2.125v16.52h0.007z"></path>
<path d="M20.181 15.795l7.826-7.018c0.364-0.331 0.397-0.894 0.066-1.265-0.331-0.364-0.894-0.397-1.265-0.066l-10.792 9.687-2.106-1.88c-0.007-0.007-0.013-0.013-0.013-0.020-0.046-0.046-0.093-0.086-0.146-0.126l-8.568-7.667c-0.371-0.331-0.934-0.298-1.265 0.073s-0.298 0.934 0.073 1.265l7.919 7.078-7.886 7.383c-0.358 0.338-0.377 0.9-0.040 1.265 0.179 0.185 0.417 0.285 0.656 0.285 0.218 0 0.437-0.079 0.609-0.238l8.005-7.489 2.172 1.94c0.172 0.152 0.384 0.225 0.596 0.225s0.43-0.079 0.596-0.232l2.231-2 7.959 7.561c0.172 0.166 0.397 0.245 0.616 0.245 0.238 0 0.47-0.093 0.649-0.278 0.338-0.358 0.324-0.927-0.033-1.265l-7.859-7.462z"></path>
</symbol>
</defs>
</svg>
